<?xml version="1.0" encoding="UTF-8" standalone="no"?>
<!-- Created with Inkscape (http://www.inkscape.org/) -->

<svg
   xmlns:dc="http://purl.org/dc/elements/1.1/"
   xmlns:cc="http://creativecommons.org/ns#"
   xmlns:rdf="http://www.w3.org/1999/02/22-rdf-syntax-ns#"
   xmlns:svg="http://www.w3.org/2000/svg"
   xmlns="http://www.w3.org/2000/svg"
   xmlns:xlink="http://www.w3.org/1999/xlink"
   xmlns:sodipodi="http://sodipodi.sourceforge.net/DTD/sodipodi-0.dtd"
   xmlns:inkscape="http://www.inkscape.org/namespaces/inkscape"
   width="1052.3622"
   height="744.09448"
   id="svg2"
   version="1.1"
   inkscape:version="0.48.2 r9819"
   sodipodi:docname="Books_3.svg"
   inkscape:export-filename="/Volumes/Daten/0000_Neu_Sortiert/3000_Daten/3300_Tinned-Software_Blog/3310_Blog_Images/3312_Blog_Post_Images/2014-02-20_Find_in_book/Books_3-label.png"
   inkscape:export-xdpi="60.860001"
   inkscape:export-ydpi="60.860001">
  <defs
     id="defs4">
    <linearGradient
       id="linearGradient4023">
      <stop
         id="stop4031"
         offset="0"
         style="stop-color:#ff6969;stop-opacity:1;" />
      <stop
         style="stop-color:#ff5151;stop-opacity:1;"
         offset="1"
         id="stop4027" />
    </linearGradient>
    <linearGradient
       id="linearGradient4011">
      <stop
         style="stop-color:#ff6565;stop-opacity:0.49803922;"
         offset="0"
         id="stop4021" />
      <stop
         style="stop-color:#ff5555;stop-opacity:1;"
         offset="1"
         id="stop4015" />
    </linearGradient>
    <linearGradient
       id="linearGradient3989">
      <stop
         style="stop-color:#4b82d5;stop-opacity:1;"
         offset="0"
         id="stop3991" />
      <stop
         style="stop-color:#4b82d5;stop-opacity:0;"
         offset="1"
         id="stop3993" />
    </linearGradient>
    <linearGradient
       id="linearGradient3981">
      <stop
         style="stop-color:#4b82d5;stop-opacity:1;"
         offset="0"
         id="stop3983" />
      <stop
         style="stop-color:#80a5dd;stop-opacity:1;"
         offset="1"
         id="stop3985" />
    </linearGradient>
    <linearGradient
       id="linearGradient3965">
      <stop
         style="stop-color:#5a8cd8;stop-opacity:0.49803922;"
         offset="0"
         id="stop3977" />
      <stop
         style="stop-color:#4b82d5;stop-opacity:0;"
         offset="1"
         id="stop3969" />
    </linearGradient>
    <linearGradient
       id="linearGradient3945">
      <stop
         style="stop-color:#8edc8e;stop-opacity:1;"
         offset="0"
         id="stop3947" />
      <stop
         id="stop3949"
         offset="0.23204862"
         style="stop-color:#7ad77a;stop-opacity:1;" />
      <stop
         id="stop3951"
         offset="0.63307822"
         style="stop-color:#66d266;stop-opacity:1;" />
      <stop
         style="stop-color:#6cd76c;stop-opacity:1;"
         offset="1"
         id="stop3953" />
    </linearGradient>
    <linearGradient
       id="linearGradient3910">
      <stop
         style="stop-color:#abe6ab;stop-opacity:1;"
         offset="0"
         id="stop3927" />
      <stop
         style="stop-color:#66d266;stop-opacity:1;"
         offset="0.5"
         id="stop3925" />
      <stop
         id="stop3921"
         offset="1"
         style="stop-color:#6cd76c;stop-opacity:1;" />
    </linearGradient>
    <linearGradient
       inkscape:collect="always"
       xlink:href="#linearGradient3910"
       id="linearGradient3916"
       x1="815.92395"
       y1="393.02939"
       x2="65.363419"
       y2="252.47993"
       gradientUnits="userSpaceOnUse"
       gradientTransform="translate(-54,18)" />
    <linearGradient
       inkscape:collect="always"
       xlink:href="#linearGradient3945"
       id="linearGradient3943"
       x1="603.97784"
       y1="689.37152"
       x2="104.71466"
       y2="318.36459"
       gradientUnits="userSpaceOnUse"
       gradientTransform="translate(-54,18)" />
    <linearGradient
       inkscape:collect="always"
       xlink:href="#linearGradient3981"
       id="linearGradient3987"
       x1="365.71072"
       y1="229.8671"
       x2="610.08368"
       y2="413.47299"
       gradientUnits="userSpaceOnUse"
       gradientTransform="translate(-72.063161,25.902633)" />
    <linearGradient
       inkscape:collect="always"
       xlink:href="#linearGradient3981"
       id="linearGradient3995"
       x1="191.35873"
       y1="267.23608"
       x2="463.79691"
       y2="603.3147"
       gradientUnits="userSpaceOnUse"
       gradientTransform="translate(-72.063161,25.902633)" />
    <linearGradient
       inkscape:collect="always"
       xlink:href="#linearGradient4023"
       id="linearGradient4029"
       x1="641.71918"
       y1="276.35876"
       x2="422.89911"
       y2="171.36665"
       gradientUnits="userSpaceOnUse"
       gradientTransform="matrix(0.99993413,-0.01147764,0.01147764,0.99993413,1.8930364,23.916157)" />
    <linearGradient
       inkscape:collect="always"
       xlink:href="#linearGradient4023"
       id="linearGradient4043"
       x1="464.36337"
       y1="433.71829"
       x2="269.09781"
       y2="320.82355"
       gradientUnits="userSpaceOnUse"
       gradientTransform="matrix(0.99993413,-0.01147764,0.01147764,0.99993413,1.8930364,23.916157)" />
    <linearGradient
       x1="390.13"
       x2="34.925"
       gradientTransform="translate(-20.788,-14.143)"
       y1="347.34"
       gradientUnits="userSpaceOnUse"
       xlink:href="#linearGradient2817"
       y2="189.56"
       id="linearGradient36781" />
    <linearGradient
       x1="-53.537"
       x2="9.3196"
       gradientTransform="matrix(0.99786,0,0,0.998,7.8861,-108.2)"
       y1="801.05"
       gradientUnits="userSpaceOnUse"
       xlink:href="#linearGradient2817"
       y2="801.05"
       id="linearGradient11311" />
    <linearGradient
       x1="129.34"
       x2="456.37"
       gradientTransform="matrix(1.1442,-0.60962,0.58847,1.1854,-328.59,-14.479)"
       y1="340.93"
       gradientUnits="userSpaceOnUse"
       y2="340.93"
       id="linearGradient6692">
      <stop
         offset="0"
         stop-color="#ebf1f5"
         id="stop2052" />
      <stop
         offset="1"
         stop-color="#409ade"
         id="stop2054" />
    </linearGradient>
    <linearGradient
       id="linearGradient2817">
      <stop
         offset="0"
         stop-color="#f0f4f5"
         id="stop2819" />
      <stop
         offset="1"
         stop-color="#aeb4c9"
         id="stop2821" />
    </linearGradient>
    <linearGradient
       inkscape:collect="always"
       xlink:href="#linearGradient6692"
       id="linearGradient4254"
       gradientUnits="userSpaceOnUse"
       gradientTransform="matrix(1.1442,-0.60962,0.58847,1.1854,-328.59,-14.479)"
       x1="129.34"
       y1="340.93"
       x2="456.37"
       y2="340.93" />
    <linearGradient
       inkscape:collect="always"
       xlink:href="#linearGradient2817"
       id="linearGradient4256"
       gradientUnits="userSpaceOnUse"
       gradientTransform="matrix(0.99786,0,0,0.998,7.8861,-108.2)"
       x1="-53.537"
       y1="801.05"
       x2="9.3196"
       y2="801.05" />
    <linearGradient
       inkscape:collect="always"
       xlink:href="#linearGradient2817"
       id="linearGradient4258"
       gradientUnits="userSpaceOnUse"
       gradientTransform="translate(-20.788,-14.143)"
       x1="390.13"
       y1="347.34"
       x2="34.925"
       y2="189.56" />
  </defs>
  <sodipodi:namedview
     id="base"
     pagecolor="#ffffff"
     bordercolor="#666666"
     borderopacity="1.0"
     inkscape:pageopacity="0.0"
     inkscape:pageshadow="2"
     inkscape:zoom="0.71577333"
     inkscape:cx="176.31772"
     inkscape:cy="292.48683"
     inkscape:document-units="px"
     inkscape:current-layer="layer9"
     showgrid="false"
     inkscape:window-width="1920"
     inkscape:window-height="982"
     inkscape:window-x="0"
     inkscape:window-y="0"
     inkscape:window-maximized="1" />
  <metadata
     id="metadata7">
    <rdf:RDF>
      <cc:Work
         rdf:about="">
        <dc:format>image/svg+xml</dc:format>
        <dc:type
           rdf:resource="http://purl.org/dc/dcmitype/StillImage" />
        <dc:title></dc:title>
      </cc:Work>
    </rdf:RDF>
  </metadata>
  <g
     inkscape:groupmode="layer"
     id="layer3"
     inkscape:label="Book2"
     style="display:inline"
     sodipodi:insensitive="true">
    <g
       id="g4272">
      <path
         sodipodi:nodetypes="ccccsccsc"
         inkscape:connector-curvature="0"
         id="path3908"
         d="M 323.9526,203.84239 57.33024,365.62998 434.46262,651.87559 c 0,0 170.952,-140.52564 251.84822,-207.44194 0,0 12.09066,-10.17834 11.15032,-19.77025 -1.72947,-17.63998 -13.01565,-21.36465 -13.01565,-21.36465 L 368.3078,201.14968 c 0,0 -10.30436,-4.67464 -20.93681,-3.60856 -14.32967,1.43679 -23.41839,6.30127 -23.41839,6.30127 z"
         style="fill:#5fd35f;fill-opacity:1;stroke:#217821;stroke-width:10;stroke-linecap:round;stroke-linejoin:round;stroke-miterlimit:4;stroke-opacity:1;stroke-dasharray:none;display:inline" />
      <path
         sodipodi:nodetypes="ccccczc"
         inkscape:connector-curvature="0"
         id="path3955"
         d="m 680.01744,423.57822 -256.96871,212.38693 -8.61444,-22.1724 4.4706,-32.69977 246.58994,-201.63285 c 0,0 -2.25748,13.94269 1.11425,26.4924 3.37174,12.5497 13.40836,17.62569 13.40836,17.62569 z"
         style="fill:#f0f0f0;fill-opacity:1;stroke:#646464;stroke-width:1;stroke-linejoin:round;stroke-miterlimit:4;stroke-opacity:1;stroke-dasharray:none" />
      <path
         style="fill:url(#linearGradient3916);fill-opacity:1;stroke:#217821;stroke-width:10;stroke-linecap:round;stroke-linejoin:round;stroke-miterlimit:4;stroke-opacity:1;stroke-dasharray:none;display:inline"
         d="M 304.28451,159.8447 58.74944,307.58848 438.63231,589.40285 676.63576,393.53196 c 0,0 12.09066,-10.17834 11.15032,-19.77025 -1.72947,-17.63998 -13.01565,-21.36465 -13.01565,-21.36465 L 352.63272,154.24799 c 0,0 -10.30436,-4.67464 -20.93681,-3.60856 -14.32967,1.43679 -27.4114,9.20527 -27.4114,9.20527 z"
         id="path3904"
         inkscape:connector-curvature="0"
         sodipodi:nodetypes="ccccsccsc" />
      <path
         sodipodi:nodetypes="cssccccc"
         inkscape:connector-curvature="0"
         id="path3935"
         d="m 58.81298,307.55779 c 0,0 -5.27786,6.1348 -6.91437,11.23193 -2.47551,7.7103 -3.19404,23.30886 -0.73612,32.94732 1.99108,7.80778 5.84911,13.95419 5.84911,13.95419 l 377.06703,285.9825 c 0,0 -7.62619,-23.83494 -5.11857,-38.52316 3.912,-16.79982 9.6927,-23.80669 9.6927,-23.80669 z"
         style="fill:url(#linearGradient3943);fill-opacity:1;stroke:#217821;stroke-width:10;stroke-linecap:round;stroke-linejoin:round;stroke-miterlimit:4;stroke-opacity:1;stroke-dasharray:none" />
    </g>
  </g>
  <g
     inkscape:groupmode="layer"
     id="layer9"
     inkscape:label="Book1-Label"
     style="display:inline">
    <rect
       transform="matrix(0.86005927,-0.51019414,0.81729181,0.576224,0,0)"
       rx="10.171437"
       ry="12.489664"
       y="402.47852"
       x="-158.36565"
       height="110.41973"
       width="169.86592"
       id="rect4356"
       style="fill:#ffffff;fill-opacity:1;fill-rule:evenodd;stroke:#676767;stroke-width:5.28590727;stroke-linecap:butt;stroke-linejoin:miter;stroke-miterlimit:4;stroke-opacity:1;stroke-dasharray:none;display:inline" />
  </g>
  <g
     inkscape:groupmode="layer"
     id="layer2"
     inkscape:label="Book2"
     style="display:inline"
     sodipodi:insensitive="true">
    <g
       id="g4266">
      <path
         style="fill:#4b82d5;fill-opacity:1;stroke:#304f84;stroke-width:10;stroke-linecap:round;stroke-linejoin:round;stroke-miterlimit:4;stroke-opacity:1;stroke-dasharray:none;display:inline"
         d="M 387.14148,144.97644 68.12761,260.82781 339.86336,607.4374 689.66114,448.95585 c 0,0 14.35389,-6.61425 15.98642,-16.11286 3.0023,-17.46844 -6.89505,-24.04814 -6.89505,-24.04814 L 435.24627,152.37927 c 0,0 -8.69912,-7.23585 -19.23443,-9.02267 -14.19875,-2.40816 -28.87036,1.61984 -28.87036,1.61984 z"
         id="path3957"
         inkscape:connector-curvature="0"
         sodipodi:nodetypes="ccccsccsc" />
      <path
         sodipodi:nodetypes="ccccczc"
         inkscape:connector-curvature="0"
         id="path3961"
         d="m 688.3004,428.73394 -355.23318,164.04358 -11.9743,-26.7426 8.38201,-37.51946 353.24176,-158.45986 c 0,0 -5.89959,16.59491 -5.43393,28.76878 0.46567,12.17387 11.01764,29.90956 11.01764,29.90956 z"
         style="fill:#f0f0f0;fill-opacity:1;stroke:#646464;stroke-width:1px;stroke-linecap:round;stroke-linejoin:round;stroke-opacity:1;display:inline" />
      <path
         sodipodi:nodetypes="ccccsccsc"
         inkscape:connector-curvature="0"
         id="path3085"
         d="M 395.25495,76.82326 64.24108,194.67463 345.97683,539.28422 703.77461,378.80267 c 0,0 14.35389,-6.61425 15.98642,-16.11286 3.0023,-17.46844 -6.89505,-24.04814 -6.89505,-24.04814 L 443.35974,84.22609 c 0,0 -8.69912,-7.23585 -19.23443,-9.02267 -14.19875,-2.40816 -28.87036,1.61984 -28.87036,1.61984 z"
         style="fill:url(#linearGradient3987);fill-opacity:1;stroke:#304f84;stroke-width:10;stroke-linecap:round;stroke-linejoin:round;stroke-miterlimit:4;stroke-opacity:1;stroke-dasharray:none;display:inline" />
      <path
         sodipodi:nodetypes="csscczzcc"
         inkscape:connector-curvature="0"
         id="path3959"
         d="m 64.28256,194.66285 c 0,0 -5.5613,3.30495 -7.89345,15.0838 -2.05744,10.39132 -1.30521,17.7216 0.25525,28.17373 1.33133,8.91737 4.63293,13.82667 4.63293,13.82667 L 339.6851,607.15191 c 0,0 -4.08931,-10.60574 -5.74491,-19.90375 -1.65561,-9.29802 -0.77193,-24.12965 2.11677,-31.73805 2.8887,-7.60839 9.67444,-16.41136 9.67444,-16.41136 z"
         style="fill:url(#linearGradient3995);fill-opacity:1;stroke:#304f84;stroke-width:10;stroke-linecap:round;stroke-linejoin:round;stroke-miterlimit:4;stroke-opacity:1;stroke-dasharray:none" />
    </g>
  </g>
  <g
     inkscape:groupmode="layer"
     id="layer8"
     inkscape:label="Book2-Label"
     style="display:inline"
     sodipodi:insensitive="true">
    <rect
       style="fill:#ffffff;fill-opacity:1;fill-rule:evenodd;stroke:#676767;stroke-width:5.48766708;stroke-linecap:butt;stroke-linejoin:miter;stroke-miterlimit:4;stroke-opacity:1;stroke-dasharray:none;display:inline"
       id="rect4358"
       width="193.52649"
       height="104.45971"
       x="9.3327703"
       y="305.86862"
       ry="11.815521"
       rx="11.588216"
       transform="matrix(0.94101105,-0.33837582,0.66457123,0.74722492,0,0)" />
  </g>
  <g
     style="display:inline"
     inkscape:label="Book3"
     id="g3997"
     inkscape:groupmode="layer"
     sodipodi:insensitive="true">
    <g
       id="g4260">
      <path
         style="fill:#ff5555;fill-opacity:1;stroke:#a02c2c;stroke-width:10;stroke-linecap:round;stroke-linejoin:round;stroke-miterlimit:4;stroke-opacity:1;stroke-dasharray:none;display:inline"
         d="M 319.70045,88.4582 91.86661,253.12843 514.77069,513.79223 769.50979,337.09946 c 0,0 10.62202,-11.21852 9.19804,-20.75063 -1.93288,-12.93867 -15.00928,-20.01442 -15.00928,-20.01442 L 363.59133,81.51383 c 0,0 -10.70604,-3.66235 -21.18675,-1.57906 -14.12517,2.80774 -22.70413,8.52343 -22.70413,8.52343 z"
         id="path3999"
         inkscape:connector-curvature="0"
         sodipodi:nodetypes="ccccsccsc" />
      <path
         style="fill:#f0f0f0;fill-opacity:1;stroke:#646464;stroke-width:1;stroke-linejoin:round;stroke-miterlimit:4;stroke-opacity:1;stroke-dasharray:none"
         d="M 759.24057,320.94565 501.8801,499.05277 491.174,477.81122 492.48027,444.83313 740.54389,276.42804 c 0,0 -0.90663,14.09515 3.65596,26.26258 4.56261,12.16741 15.04072,18.25503 15.04072,18.25503 z"
         id="path4001"
         inkscape:connector-curvature="0"
         sodipodi:nodetypes="ccccczc" />
      <path
         sodipodi:nodetypes="ccccsccsc"
         inkscape:connector-curvature="0"
         id="path4003"
         d="M 323.87126,54.64706 87.69937,195.21933 512.91519,451.20799 754.98604,283.36365 c 0,0 10.912,-11.26636 9.19803,-20.75062 -2.42766,-13.43351 -15.00927,-20.01442 -15.00927,-20.01442 L 371.45748,44.42828 c 0,0 -10.70602,-3.66237 -21.18673,-1.57907 -14.12517,2.80774 -26.39949,11.79785 -26.39949,11.79785 z"
         style="fill:url(#linearGradient4029);fill-opacity:1;stroke:#a02c2c;stroke-width:10;stroke-linecap:round;stroke-linejoin:round;stroke-miterlimit:4;stroke-opacity:1;stroke-dasharray:none;display:inline" />
      <path
         style="fill:url(#linearGradient4043);fill-opacity:1;stroke:#a02c2c;stroke-width:10;stroke-linecap:round;stroke-linejoin:round;stroke-miterlimit:4;stroke-opacity:1;stroke-dasharray:none"
         d="m 87.75967,195.18266 c 0,0 -4.663647,6.61378 -5.802559,11.84464 -1.722803,7.91257 -0.938426,23.50796 2.434711,32.86547 2.732458,7.5802 7.163518,13.32725 7.163518,13.32725 L 514.36907,513.6282 c 0,0 -9.88225,-22.99136 -8.79832,-37.85263 2.27882,-17.0981 7.35913,-24.62824 7.35913,-24.62824 z"
         id="path4005"
         inkscape:connector-curvature="0"
         sodipodi:nodetypes="cssccccc" />
    </g>
  </g>
  <g
     inkscape:groupmode="layer"
     id="layer7"
     inkscape:label="Book3-Label"
     style="display:inline"
     sodipodi:insensitive="true">
    <rect
       style="fill:#ffffff;fill-opacity:1;fill-rule:evenodd;stroke:#676767;stroke-width:5.28590727;stroke-linecap:butt;stroke-linejoin:miter;stroke-miterlimit:4;stroke-opacity:1;stroke-dasharray:none"
       id="rect4279"
       width="169.86592"
       height="110.41973"
       x="-54.988125"
       y="340.64008"
       ry="12.489664"
       rx="10.171437"
       transform="matrix(0.83027811,-0.55734932,0.84814544,0.52976346,0,0)" />
  </g>
</svg>
